# Blender v2.81 (sub 16) OBJ File: ''
# www.blender.org
mtllib aruco.mtl
o aruco_color
v 0.000000 0.010000 0.000000
v 0.000000 0.000000 0.000000
v 0.100000 0.000000 0.000000
v 0.100000 0.010000 0.000000
v 0.100000 0.010000 0.000000
v 0.100000 0.000000 0.000000
v 0.100000 0.000000 -0.100000
v 0.100000 0.010000 -0.100000
v 0.100000 0.010000 -0.100000
v 0.100000 0.000000 -0.100000
v 0.000000 0.000000 -0.100000
v 0.000000 0.010000 -0.100000
v 0.000000 0.010000 -0.100000
v 0.000000 0.000000 -0.100000
v 0.000000 0.000000 0.000000
v 0.000000 0.010000 0.000000
v 0.000000 0.000000 -0.100000
v 0.100000 0.000000 -0.100000
v 0.100000 0.000000 0.000000
v 0.000000 0.000000 0.000000
v 0.012500 0.010000 -0.025000
v 0.000000 0.010000 0.000000
v 0.012500 0.010000 -0.012500
v 0.025000 0.010000 -0.012500
v 0.037500 0.010000 -0.025000
v 0.025000 0.010000 -0.025000
v 0.025000 0.010000 -0.037500
v 0.050000 0.010000 -0.012500
v 0.012500 0.010000 -0.050000
v 0.050000 0.010000 -0.025000
v 0.037500 0.010000 -0.037500
v 0.100000 0.010000 0.000000
v 0.025000 0.010000 -0.050000
v 0.012500 0.010000 -0.075000
v 0.000000 0.010000 -0.100000
v 0.012500 0.010000 -0.062500
v 0.025000 0.010000 -0.075000
v 0.050000 0.010000 -0.050000
v 0.050000 0.010000 -0.037500
v 0.062500 0.010000 -0.037500
v 0.062500 0.010000 -0.050000
v 0.037500 0.010000 -0.062500
v 0.037500 0.010000 -0.050000
v 0.050000 0.010000 -0.062500
v 0.025000 0.010000 -0.062500
v 0.050000 0.010000 -0.075000
v 0.050000 0.010000 -0.087500
v 0.062500 0.010000 -0.025000
v 0.075000 0.010000 -0.050000
v 0.075000 0.010000 -0.037500
v 0.075000 0.010000 -0.025000
v 0.075000 0.010000 -0.012500
v 0.062500 0.010000 -0.012500
v 0.087500 0.010000 -0.050000
v 0.100000 0.010000 -0.100000
v 0.062500 0.010000 -0.062500
v 0.062500 0.010000 -0.075000
v 0.087500 0.010000 -0.075000
v 0.087500 0.010000 -0.062500
v 0.087500 0.010000 -0.087500
v 0.062500 0.010000 -0.087500
v 0.075000 0.010000 -0.087500
v 0.012500 0.010000 -0.012500
v 0.025000 0.010000 -0.012500
v 0.025000 0.008000 -0.012500
v 0.012500 0.008000 -0.012500
v 0.025000 0.010000 -0.012500
v 0.025000 0.010000 -0.025000
v 0.025000 0.008000 -0.025000
v 0.025000 0.008000 -0.012500
v 0.025000 0.010000 -0.025000
v 0.012500 0.010000 -0.025000
v 0.012500 0.008000 -0.025000
v 0.025000 0.008000 -0.025000
v 0.012500 0.010000 -0.025000
v 0.012500 0.010000 -0.012500
v 0.012500 0.008000 -0.012500
v 0.012500 0.008000 -0.025000
v 0.012500 0.008000 -0.025000
v 0.012500 0.008000 -0.012500
v 0.025000 0.008000 -0.012500
v 0.025000 0.008000 -0.025000
v 0.087500 0.008000 -0.087500
v 0.087500 0.008000 -0.075000
v 0.087500 0.010000 -0.075000
v 0.087500 0.010000 -0.087500
v 0.075000 0.008000 -0.087500
v 0.087500 0.008000 -0.087500
v 0.087500 0.010000 -0.087500
v 0.075000 0.010000 -0.087500
v 0.075000 0.008000 -0.087500
v 0.075000 0.008000 -0.075000
v 0.087500 0.008000 -0.075000
v 0.087500 0.008000 -0.087500
v 0.062500 0.008000 -0.062500
v 0.062500 0.008000 -0.075000
v 0.062500 0.010000 -0.075000
v 0.062500 0.010000 -0.062500
v 0.062500 0.008000 -0.075000
v 0.062500 0.008000 -0.062500
v 0.075000 0.008000 -0.062500
v 0.075000 0.008000 -0.075000
v 0.062500 0.008000 -0.075000
v 0.050000 0.008000 -0.075000
v 0.050000 0.010000 -0.075000
v 0.062500 0.010000 -0.075000
v 0.050000 0.008000 -0.087500
v 0.062500 0.008000 -0.087500
v 0.062500 0.010000 -0.087500
v 0.050000 0.010000 -0.087500
v 0.050000 0.008000 -0.075000
v 0.050000 0.008000 -0.087500
v 0.050000 0.010000 -0.087500
v 0.050000 0.010000 -0.075000
v 0.050000 0.008000 -0.087500
v 0.050000 0.008000 -0.075000
v 0.062500 0.008000 -0.075000
v 0.062500 0.008000 -0.087500
v 0.062500 0.008000 -0.087500
v 0.075000 0.008000 -0.087500
v 0.075000 0.010000 -0.087500
v 0.062500 0.010000 -0.087500
v 0.062500 0.008000 -0.087500
v 0.062500 0.008000 -0.075000
v 0.075000 0.008000 -0.075000
v 0.075000 0.008000 -0.087500
v 0.087500 0.008000 -0.075000
v 0.087500 0.008000 -0.062500
v 0.087500 0.010000 -0.062500
v 0.087500 0.010000 -0.075000
v 0.075000 0.008000 -0.075000
v 0.075000 0.008000 -0.062500
v 0.087500 0.008000 -0.062500
v 0.087500 0.008000 -0.075000
v 0.087500 0.008000 -0.050000
v 0.075000 0.008000 -0.050000
v 0.075000 0.010000 -0.050000
v 0.087500 0.010000 -0.050000
v 0.087500 0.008000 -0.062500
v 0.087500 0.008000 -0.050000
v 0.087500 0.010000 -0.050000
v 0.087500 0.010000 -0.062500
v 0.075000 0.008000 -0.062500
v 0.075000 0.008000 -0.050000
v 0.087500 0.008000 -0.050000
v 0.087500 0.008000 -0.062500
v 0.075000 0.008000 -0.050000
v 0.062500 0.008000 -0.050000
v 0.062500 0.010000 -0.050000
v 0.075000 0.010000 -0.050000
v 0.062500 0.008000 -0.062500
v 0.062500 0.008000 -0.050000
v 0.075000 0.008000 -0.050000
v 0.075000 0.008000 -0.062500
v 0.062500 0.008000 -0.050000
v 0.050000 0.008000 -0.050000
v 0.050000 0.010000 -0.050000
v 0.062500 0.010000 -0.050000
v 0.050000 0.008000 -0.062500
v 0.062500 0.008000 -0.062500
v 0.062500 0.010000 -0.062500
v 0.050000 0.010000 -0.062500
v 0.050000 0.008000 -0.050000
v 0.050000 0.008000 -0.062500
v 0.050000 0.010000 -0.062500
v 0.050000 0.010000 -0.050000
v 0.050000 0.008000 -0.062500
v 0.050000 0.008000 -0.050000
v 0.062500 0.008000 -0.050000
v 0.062500 0.008000 -0.062500
v 0.050000 0.008000 -0.050000
v 0.050000 0.008000 -0.037500
v 0.050000 0.010000 -0.037500
v 0.050000 0.010000 -0.050000
v 0.037500 0.008000 -0.050000
v 0.050000 0.008000 -0.050000
v 0.050000 0.010000 -0.050000
v 0.037500 0.010000 -0.050000
v 0.037500 0.008000 -0.050000
v 0.037500 0.008000 -0.037500
v 0.050000 0.008000 -0.037500
v 0.050000 0.008000 -0.050000
v 0.050000 0.008000 -0.025000
v 0.037500 0.008000 -0.025000
v 0.037500 0.010000 -0.025000
v 0.050000 0.010000 -0.025000
v 0.050000 0.008000 -0.037500
v 0.050000 0.008000 -0.025000
v 0.050000 0.010000 -0.025000
v 0.050000 0.010000 -0.037500
v 0.037500 0.008000 -0.025000
v 0.037500 0.008000 -0.037500
v 0.037500 0.010000 -0.037500
v 0.037500 0.010000 -0.025000
v 0.037500 0.008000 -0.037500
v 0.037500 0.008000 -0.025000
v 0.050000 0.008000 -0.025000
v 0.050000 0.008000 -0.037500
v 0.037500 0.008000 -0.062500
v 0.037500 0.008000 -0.050000
v 0.037500 0.010000 -0.050000
v 0.037500 0.010000 -0.062500
v 0.025000 0.008000 -0.062500
v 0.037500 0.008000 -0.062500
v 0.037500 0.010000 -0.062500
v 0.025000 0.010000 -0.062500
v 0.025000 0.008000 -0.062500
v 0.025000 0.008000 -0.050000
v 0.037500 0.008000 -0.050000
v 0.037500 0.008000 -0.062500
v 0.037500 0.008000 -0.037500
v 0.025000 0.008000 -0.037500
v 0.025000 0.010000 -0.037500
v 0.037500 0.010000 -0.037500
v 0.025000 0.008000 -0.037500
v 0.025000 0.008000 -0.050000
v 0.025000 0.010000 -0.050000
v 0.025000 0.010000 -0.037500
v 0.025000 0.008000 -0.050000
v 0.025000 0.008000 -0.037500
v 0.037500 0.008000 -0.037500
v 0.037500 0.008000 -0.050000
v 0.025000 0.008000 -0.050000
v 0.012500 0.008000 -0.050000
v 0.012500 0.010000 -0.050000
v 0.025000 0.010000 -0.050000
v 0.012500 0.008000 -0.050000
v 0.012500 0.008000 -0.062500
v 0.012500 0.010000 -0.062500
v 0.012500 0.010000 -0.050000
v 0.012500 0.008000 -0.062500
v 0.012500 0.008000 -0.050000
v 0.025000 0.008000 -0.050000
v 0.025000 0.008000 -0.062500
v 0.025000 0.008000 -0.075000
v 0.025000 0.008000 -0.062500
v 0.025000 0.010000 -0.062500
v 0.025000 0.010000 -0.075000
v 0.012500 0.008000 -0.075000
v 0.025000 0.008000 -0.075000
v 0.025000 0.010000 -0.075000
v 0.012500 0.010000 -0.075000
v 0.012500 0.008000 -0.062500
v 0.012500 0.008000 -0.075000
v 0.012500 0.010000 -0.075000
v 0.012500 0.010000 -0.062500
v 0.012500 0.008000 -0.075000
v 0.012500 0.008000 -0.062500
v 0.025000 0.008000 -0.062500
v 0.025000 0.008000 -0.075000
v 0.062500 0.008000 -0.012500
v 0.050000 0.008000 -0.012500
v 0.050000 0.010000 -0.012500
v 0.062500 0.010000 -0.012500
v 0.050000 0.008000 -0.025000
v 0.062500 0.008000 -0.025000
v 0.062500 0.010000 -0.025000
v 0.050000 0.010000 -0.025000
v 0.050000 0.008000 -0.012500
v 0.050000 0.008000 -0.025000
v 0.050000 0.010000 -0.025000
v 0.050000 0.010000 -0.012500
v 0.050000 0.008000 -0.025000
v 0.050000 0.008000 -0.012500
v 0.062500 0.008000 -0.012500
v 0.062500 0.008000 -0.025000
v 0.075000 0.008000 -0.012500
v 0.062500 0.008000 -0.012500
v 0.062500 0.010000 -0.012500
v 0.075000 0.010000 -0.012500
v 0.075000 0.008000 -0.025000
v 0.075000 0.008000 -0.012500
v 0.075000 0.010000 -0.012500
v 0.075000 0.010000 -0.025000
v 0.062500 0.008000 -0.025000
v 0.062500 0.008000 -0.012500
v 0.075000 0.008000 -0.012500
v 0.075000 0.008000 -0.025000
v 0.075000 0.008000 -0.037500
v 0.075000 0.008000 -0.025000
v 0.075000 0.010000 -0.025000
v 0.075000 0.010000 -0.037500
v 0.062500 0.008000 -0.037500
v 0.075000 0.008000 -0.037500
v 0.075000 0.010000 -0.037500
v 0.062500 0.010000 -0.037500
v 0.062500 0.008000 -0.025000
v 0.062500 0.008000 -0.037500
v 0.062500 0.010000 -0.037500
v 0.062500 0.010000 -0.025000
v 0.062500 0.008000 -0.037500
v 0.062500 0.008000 -0.025000
v 0.075000 0.008000 -0.025000
v 0.075000 0.008000 -0.037500
vt 0.016850 0.498831
vt 0.016850 0.465120
vt 0.352973 0.465120
vt 0.352973 0.498831
vt 0.016850 0.458595
vt 0.016850 0.424884
vt 0.352973 0.424884
vt 0.352973 0.458595
vt 0.016850 0.418360
vt 0.016850 0.384649
vt 0.352973 0.384649
vt 0.352973 0.418360
vt 0.288712 0.678702
vt 0.288712 0.653425
vt 0.548349 0.653425
vt 0.548349 0.678702
vt 0.288712 0.679465
vt 0.288712 0.939103
vt 0.548349 0.939103
vt 0.548349 0.679465
vt 0.223039 0.661615
vt 0.287949 0.629065
vt 0.255494 0.661615
vt 0.255494 0.694165
vt 0.223039 0.726715
vt 0.223039 0.694165
vt 0.190584 0.694165
vt 0.255494 0.759265
vt 0.158130 0.661615
vt 0.223039 0.759265
vt 0.190584 0.726715
vt 0.287949 0.889465
vt 0.158130 0.694165
vt 0.093220 0.661615
vt 0.028311 0.629065
vt 0.125675 0.661615
vt 0.093220 0.694165
vt 0.158130 0.759265
vt 0.190584 0.759265
vt 0.190584 0.791815
vt 0.158130 0.791815
vt 0.125675 0.726715
vt 0.158130 0.726715
vt 0.125675 0.759265
vt 0.125675 0.694165
vt 0.093220 0.759265
vt 0.060766 0.759265
vt 0.223039 0.791815
vt 0.158130 0.824365
vt 0.190584 0.824365
vt 0.223039 0.824365
vt 0.255494 0.824365
vt 0.255494 0.791815
vt 0.158130 0.856915
vt 0.028311 0.889465
vt 0.125675 0.791815
vt 0.093220 0.791815
vt 0.093220 0.856915
vt 0.125675 0.856915
vt 0.060766 0.856915
vt 0.060766 0.791815
vt 0.060766 0.824365
vt 0.627863 0.426787
vt 0.627863 0.467939
vt 0.634605 0.467939
vt 0.634605 0.426787
vt 0.606793 0.426787
vt 0.606793 0.467939
vt 0.613536 0.467939
vt 0.613536 0.426787
vt 0.670002 0.426787
vt 0.670002 0.467939
vt 0.676744 0.467939
vt 0.676744 0.426787
vt 0.648932 0.426787
vt 0.648932 0.467939
vt 0.655674 0.467939
vt 0.655674 0.426787
vt 0.691730 0.089030
vt 0.740797 0.089030
vt 0.740797 0.137639
vt 0.691730 0.137639
vt 0.543585 0.426787
vt 0.543585 0.467939
vt 0.550327 0.467939
vt 0.550327 0.426787
vt 0.522516 0.426787
vt 0.522516 0.467939
vt 0.529258 0.467939
vt 0.529258 0.426787
vt 0.740963 0.186580
vt 0.790030 0.186580
vt 0.790030 0.235189
vt 0.740963 0.235189
vt 0.585724 0.426787
vt 0.585724 0.467939
vt 0.592466 0.467939
vt 0.592466 0.426787
vt 0.642498 0.089030
vt 0.691564 0.089030
vt 0.691564 0.137639
vt 0.642498 0.137639
vt 0.627863 0.384649
vt 0.627863 0.425800
vt 0.634605 0.425800
vt 0.634605 0.384649
vt 0.564655 0.426787
vt 0.564655 0.467939
vt 0.571397 0.467939
vt 0.571397 0.426787
vt 0.459307 0.384649
vt 0.459307 0.425800
vt 0.466050 0.425800
vt 0.466050 0.384649
vt 0.691564 0.235189
vt 0.642498 0.235189
vt 0.642498 0.186580
vt 0.691564 0.186580
vt 0.606793 0.384649
vt 0.606793 0.425800
vt 0.613536 0.425800
vt 0.613536 0.384649
vt 0.593265 0.186580
vt 0.642332 0.186580
vt 0.642332 0.235189
vt 0.593265 0.235189
vt 0.438238 0.384649
vt 0.438238 0.425800
vt 0.444980 0.425800
vt 0.444980 0.384649
vt 0.642498 0.186414
vt 0.642498 0.137805
vt 0.691564 0.137805
vt 0.691564 0.186414
vt 0.501446 0.384649
vt 0.501446 0.425800
vt 0.508188 0.425800
vt 0.508188 0.384649
vt 0.480377 0.384649
vt 0.480377 0.425800
vt 0.487119 0.425800
vt 0.487119 0.384649
vt 0.790029 0.283965
vt 0.740963 0.283965
vt 0.740963 0.235355
vt 0.790029 0.235355
vt 0.670002 0.384649
vt 0.670002 0.425800
vt 0.676744 0.425800
vt 0.676744 0.384649
vt 0.593265 0.137805
vt 0.642332 0.137805
vt 0.642332 0.186414
vt 0.593265 0.186414
vt 0.648932 0.384649
vt 0.648932 0.425800
vt 0.655674 0.425800
vt 0.655674 0.384649
vt 0.375030 0.384649
vt 0.375030 0.425800
vt 0.381772 0.425800
vt 0.381772 0.384649
vt 0.353960 0.384649
vt 0.353960 0.425800
vt 0.360703 0.425800
vt 0.360703 0.384649
vt 0.740963 0.137805
vt 0.790030 0.137805
vt 0.790030 0.186414
vt 0.740963 0.186414
vt 0.417169 0.384649
vt 0.417169 0.425800
vt 0.423911 0.425800
vt 0.423911 0.384649
vt 0.396099 0.384649
vt 0.396099 0.425800
vt 0.402842 0.425800
vt 0.402842 0.384649
vt 0.830938 0.085322
vt 0.953797 0.085322
vt 0.953797 0.205302
vt 0.830938 0.205302
vt 0.459307 0.426787
vt 0.459307 0.467939
vt 0.466050 0.467939
vt 0.466050 0.426787
vt 0.438238 0.426787
vt 0.438238 0.467939
vt 0.444980 0.467939
vt 0.444980 0.426787
vt 0.501446 0.426787
vt 0.501446 0.467939
vt 0.508188 0.467939
vt 0.508188 0.426787
vt 0.691730 0.235189
vt 0.691730 0.186580
vt 0.740797 0.186580
vt 0.740797 0.235189
vt 0.480377 0.426787
vt 0.480377 0.467939
vt 0.487119 0.467939
vt 0.487119 0.426787
vt 0.375030 0.426787
vt 0.375030 0.467939
vt 0.381772 0.467939
vt 0.381772 0.426787
vt 0.740963 0.088864
vt 0.740963 0.040254
vt 0.790029 0.040255
vt 0.790029 0.088864
vt 0.353960 0.426787
vt 0.353960 0.467939
vt 0.360703 0.467939
vt 0.360703 0.426787
vt 0.417169 0.426787
vt 0.417169 0.467939
vt 0.423911 0.467939
vt 0.423911 0.426787
vt 0.691730 0.186414
vt 0.691730 0.137805
vt 0.740797 0.137805
vt 0.740797 0.186414
vt 0.396099 0.426787
vt 0.396099 0.467939
vt 0.402842 0.467939
vt 0.402842 0.426787
vt 0.543585 0.384649
vt 0.543585 0.425800
vt 0.550327 0.425800
vt 0.550327 0.384649
vt 0.740963 0.137639
vt 0.740963 0.089030
vt 0.790029 0.089030
vt 0.790029 0.137639
vt 0.564655 0.553204
vt 0.564655 0.594355
vt 0.571397 0.594355
vt 0.571397 0.553204
vt 0.522516 0.553204
vt 0.522516 0.594355
vt 0.529258 0.594355
vt 0.529258 0.553204
vt 0.648932 0.553204
vt 0.648932 0.594355
vt 0.655674 0.594355
vt 0.655674 0.553204
vt 0.642332 0.088864
vt 0.593265 0.088864
vt 0.593265 0.040255
vt 0.642332 0.040254
vt 0.522516 0.384649
vt 0.522516 0.425800
vt 0.529258 0.425800
vt 0.529258 0.384649
vt 0.585724 0.384649
vt 0.585724 0.425800
vt 0.592466 0.425800
vt 0.592466 0.384649
vt 0.564655 0.384649
vt 0.564655 0.425800
vt 0.571397 0.425800
vt 0.571397 0.384649
vt 0.691730 0.088864
vt 0.691730 0.040255
vt 0.740797 0.040254
vt 0.740797 0.088864
vt 0.606793 0.553204
vt 0.606793 0.594355
vt 0.613536 0.594355
vt 0.613536 0.553204
vt 0.396099 0.553204
vt 0.396099 0.594355
vt 0.402842 0.594355
vt 0.402842 0.553204
vt 0.593265 0.137639
vt 0.593265 0.089030
vt 0.642332 0.089030
vt 0.642332 0.137639
vt 0.353960 0.553204
vt 0.353960 0.594355
vt 0.360703 0.594355
vt 0.360703 0.553204
vt 0.480377 0.553204
vt 0.480377 0.594355
vt 0.487119 0.594355
vt 0.487119 0.553204
vt 0.438238 0.553204
vt 0.438238 0.594355
vt 0.444980 0.594355
vt 0.444980 0.553204
vt 0.642498 0.040254
vt 0.691564 0.040254
vt 0.691564 0.088864
vt 0.642498 0.088864
vn 0.0000 -0.0000 1.0000
vn 1.0000 0.0000 0.0000
vn 0.0000 0.0000 -1.0000
vn -1.0000 0.0000 0.0000
vn 0.0000 -1.0000 -0.0000
vn 0.0000 1.0000 0.0000
usemtl material_0
s 1
f 1/1/1 2/2/1 3/3/1
f 1/1/1 3/3/1 4/4/1
f 5/5/2 6/6/2 7/7/2
f 5/5/2 7/7/2 8/8/2
f 9/9/3 10/10/3 11/11/3
f 9/9/3 11/11/3 12/12/3
f 13/13/4 14/14/4 15/15/4
f 13/13/4 15/15/4 16/16/4
f 17/17/5 18/18/5 19/19/5
f 17/17/5 19/19/5 20/20/5
f 21/21/6 22/22/6 23/23/6
f 24/24/6 23/23/6 22/22/6
f 25/25/6 26/26/6 24/24/6
f 27/27/6 21/21/6 26/26/6
f 24/24/6 22/22/6 28/28/6
f 29/29/6 22/22/6 21/21/6
f 30/30/6 25/25/6 28/28/6
f 24/24/6 28/28/6 25/25/6
f 25/25/6 31/31/6 27/27/6
f 25/25/6 27/27/6 26/26/6
f 28/28/6 22/22/6 32/32/6
f 29/29/6 21/21/6 27/27/6
f 33/33/6 29/29/6 27/27/6
f 34/34/6 35/35/6 36/36/6
f 29/29/6 36/36/6 35/35/6
f 37/37/6 35/35/6 34/34/6
f 22/22/6 29/29/6 35/35/6
f 38/38/6 39/39/6 40/40/6
f 38/38/6 40/40/6 41/41/6
f 42/42/6 43/43/6 38/38/6
f 42/42/6 38/38/6 44/44/6
f 37/37/6 45/45/6 42/42/6
f 46/46/6 37/37/6 42/42/6
f 47/47/6 35/35/6 37/37/6
f 39/39/6 30/30/6 48/48/6
f 39/39/6 48/48/6 40/40/6
f 49/49/6 41/41/6 40/40/6
f 49/49/6 40/40/6 50/50/6
f 51/51/6 52/52/6 32/32/6
f 53/53/6 32/32/6 52/52/6
f 50/50/6 51/51/6 54/54/6
f 32/32/6 54/54/6 51/51/6
f 49/49/6 50/50/6 54/54/6
f 54/54/6 32/32/6 55/55/6
f 32/32/6 53/53/6 28/28/6
f 46/46/6 44/44/6 56/56/6
f 46/46/6 56/56/6 57/57/6
f 37/37/6 46/46/6 47/47/6
f 42/42/6 44/44/6 46/46/6
f 55/55/6 58/58/6 59/59/6
f 55/55/6 60/60/6 58/58/6
f 55/55/6 61/61/6 62/62/6
f 60/60/6 55/55/6 62/62/6
f 47/47/6 61/61/6 55/55/6
f 55/55/6 59/59/6 54/54/6
f 35/35/6 47/47/6 55/55/6
f 63/63/3 64/64/3 65/65/3
f 63/63/3 65/65/3 66/66/3
f 67/67/4 68/68/4 69/69/4
f 67/67/4 69/69/4 70/70/4
f 71/71/1 72/72/1 73/73/1
f 71/71/1 73/73/1 74/74/1
f 75/75/2 76/76/2 77/77/2
f 75/75/2 77/77/2 78/78/2
f 79/79/6 80/80/6 81/81/6
f 79/79/6 81/81/6 82/82/6
f 83/83/4 84/84/4 85/85/4
f 83/83/4 85/85/4 86/86/4
f 87/87/1 88/88/1 89/89/1
f 87/87/1 89/89/1 90/90/1
f 91/91/6 92/92/6 93/93/6
f 91/91/6 93/93/6 94/94/6
f 95/95/2 96/96/2 97/97/2
f 95/95/2 97/97/2 98/98/2
f 99/99/6 100/100/6 101/101/6
f 99/99/6 101/101/6 102/102/6
f 103/103/3 104/104/3 105/105/3
f 103/103/3 105/105/3 106/106/3
f 107/107/1 108/108/1 109/109/1
f 107/107/1 109/109/1 110/110/1
f 111/111/2 112/112/2 113/113/2
f 111/111/2 113/113/2 114/114/2
f 115/115/6 116/116/6 117/117/6
f 115/115/6 117/117/6 118/118/6
f 119/119/1 120/120/1 121/121/1
f 119/119/1 121/121/1 122/122/1
f 123/123/6 124/124/6 125/125/6
f 123/123/6 125/125/6 126/126/6
f 127/127/4 128/128/4 129/129/4
f 127/127/4 129/129/4 130/130/4
f 131/131/6 132/132/6 133/133/6
f 131/131/6 133/133/6 134/134/6
f 135/135/3 136/136/3 137/137/3
f 135/135/3 137/137/3 138/138/3
f 139/139/4 140/140/4 141/141/4
f 139/139/4 141/141/4 142/142/4
f 143/143/6 144/144/6 145/145/6
f 143/143/6 145/145/6 146/146/6
f 147/147/3 148/148/3 149/149/3
f 147/147/3 149/149/3 150/150/3
f 151/151/6 152/152/6 153/153/6
f 151/151/6 153/153/6 154/154/6
f 155/155/3 156/156/3 157/157/3
f 155/155/3 157/157/3 158/158/3
f 159/159/1 160/160/1 161/161/1
f 159/159/1 161/161/1 162/162/1
f 163/163/2 164/164/2 165/165/2
f 163/163/2 165/165/2 166/166/2
f 167/167/6 168/168/6 169/169/6
f 167/167/6 169/169/6 170/170/6
f 171/171/4 172/172/4 173/173/4
f 171/171/4 173/173/4 174/174/4
f 175/175/1 176/176/1 177/177/1
f 175/175/1 177/177/1 178/178/1
f 179/179/6 180/180/6 181/181/6
f 179/179/6 181/181/6 182/182/6
f 183/183/3 184/184/3 185/185/3
f 183/183/3 185/185/3 186/186/3
f 187/187/4 188/188/4 189/189/4
f 187/187/4 189/189/4 190/190/4
f 191/191/2 192/192/2 193/193/2
f 191/191/2 193/193/2 194/194/2
f 195/195/6 196/196/6 197/197/6
f 195/195/6 197/197/6 198/198/6
f 199/199/4 200/200/4 201/201/4
f 199/199/4 201/201/4 202/202/4
f 203/203/1 204/204/1 205/205/1
f 203/203/1 205/205/1 206/206/1
f 207/207/6 208/208/6 209/209/6
f 207/207/6 209/209/6 210/210/6
f 211/211/3 212/212/3 213/213/3
f 211/211/3 213/213/3 214/214/3
f 215/215/2 216/216/2 217/217/2
f 215/215/2 217/217/2 218/218/2
f 219/219/6 220/220/6 221/221/6
f 219/219/6 221/221/6 222/222/6
f 223/223/3 224/224/3 225/225/3
f 223/223/3 225/225/3 226/226/3
f 227/227/2 228/228/2 229/229/2
f 227/227/2 229/229/2 230/230/2
f 231/231/6 232/232/6 233/233/6
f 231/231/6 233/233/6 234/234/6
f 235/235/4 236/236/4 237/237/4
f 235/235/4 237/237/4 238/238/4
f 239/239/1 240/240/1 241/241/1
f 239/239/1 241/241/1 242/242/1
f 243/243/2 244/244/2 245/245/2
f 243/243/2 245/245/2 246/246/2
f 247/247/6 248/248/6 249/249/6
f 247/247/6 249/249/6 250/250/6
f 251/251/3 252/252/3 253/253/3
f 251/251/3 253/253/3 254/254/3
f 255/255/1 256/256/1 257/257/1
f 255/255/1 257/257/1 258/258/1
f 259/259/2 260/260/2 261/261/2
f 259/259/2 261/261/2 262/262/2
f 263/263/6 264/264/6 265/265/6
f 263/263/6 265/265/6 266/266/6
f 267/267/3 268/268/3 269/269/3
f 267/267/3 269/269/3 270/270/3
f 271/271/4 272/272/4 273/273/4
f 271/271/4 273/273/4 274/274/4
f 275/275/6 276/276/6 277/277/6
f 275/275/6 277/277/6 278/278/6
f 279/279/4 280/280/4 281/281/4
f 279/279/4 281/281/4 282/282/4
f 283/283/1 284/284/1 285/285/1
f 283/283/1 285/285/1 286/286/1
f 287/287/2 288/288/2 289/289/2
f 287/287/2 289/289/2 290/290/2
f 291/291/6 292/292/6 293/293/6
f 291/291/6 293/293/6 294/294/6
