# Blender v2.81 (sub 16) OBJ File: ''
# www.blender.org
mtllib calibration.mtl
o calibration.001
v -0.105000 0.005000 0.148500
v -0.105000 0.005000 -0.148500
v -0.105000 -0.005000 -0.148500
v -0.105000 -0.005000 0.148500
v -0.105000 0.005000 -0.148500
v 0.105000 0.005000 -0.148500
v 0.105000 -0.005000 -0.148500
v -0.105000 -0.005000 -0.148500
v 0.105000 0.005000 -0.148500
v 0.105000 0.005000 0.148500
v 0.105000 -0.005000 0.148500
v 0.105000 -0.005000 -0.148500
v 0.105000 0.005000 0.148500
v -0.105000 0.005000 0.148500
v -0.105000 -0.005000 0.148500
v 0.105000 -0.005000 0.148500
v -0.105000 0.005000 0.148500
v 0.105000 0.005000 0.148500
v 0.105000 0.005000 -0.148500
v -0.105000 0.005000 -0.148500
v -0.105000 -0.005000 0.148500
v 0.105000 -0.005000 -0.148500
v 0.105000 -0.005000 0.148500
v -0.105000 -0.005000 -0.148500
vt 0.952025 -0.301414
vt 0.960303 -0.301414
vt 0.960303 -0.286953
vt 0.952025 -0.286953
vt 0.960303 -0.301414
vt 0.966157 -0.301414
vt 0.966157 -0.286953
vt 0.960303 -0.286953
vt 0.966157 -0.301414
vt 0.974435 -0.301414
vt 0.974435 -0.286953
vt 0.966157 -0.286953
vt 0.974435 -0.301414
vt 0.980289 -0.301414
vt 0.980289 -0.286953
vt 0.974435 -0.286953
vt 0.999802 0.999900
vt 0.000100 0.999900
vt 0.000100 0.000100
vt 0.999802 0.000100
vt 0.980289 -0.273150
vt 0.972010 -0.286953
vt 0.980289 -0.286953
vt 0.972010 -0.273150
vn -1.0000 0.0000 0.0000
vn 0.0000 0.0000 -1.0000
vn 1.0000 0.0000 0.0000
vn 0.0000 0.0000 1.0000
vn 0.0000 1.0000 0.0000
vn 0.0000 -1.0000 -0.0000
usemtl material_0
s 1
f 1/1/1 2/2/1 3/3/1
f 1/1/1 3/3/1 4/4/1
f 5/5/2 6/6/2 7/7/2
f 5/5/2 7/7/2 8/8/2
f 9/9/3 10/10/3 11/11/3
f 9/9/3 11/11/3 12/12/3
f 13/13/4 14/14/4 15/15/4
f 13/13/4 15/15/4 16/16/4
f 17/17/5 18/18/5 19/19/5
f 19/19/5 20/20/5 17/17/5
f 21/21/6 22/22/6 23/23/6
f 22/22/6 21/21/6 24/24/6
