ply
format ascii 1.0
comment File exported by Rhinoceros Version 7.0
element vertex 522
property float x
property float y
property float z
property float nx
property float ny
property float nz
property uchar red
property uchar green
property uchar blue
element face 307
property list uchar uint vertex_indices
element material 1
property uchar ambient_red
property uchar ambient_green
property uchar ambient_blue
property uchar ambient_alpha
property uchar diffuse_red
property uchar diffuse_green
property uchar diffuse_blue
property uchar diffuse_alpha
property uchar emissive_red
property uchar emissive_green
property uchar emissive_blue
property uchar emissive_alpha
property uchar specular_red
property uchar specular_green
property uchar specular_blue
property uchar specular_alpha
property double shine
property double transparency
end_header
750 350 -1850 -1 0 0 250 250 250
750 350 -1900 -1 0 0 250 250 250
751.874389648438 359.497772216797 -1850 -0.9250233 0.3799104 0 250 250 250
751.874389648438 359.497772216797 -1900 -0.9250233 0.3799104 0 250 250 250
757.507385253906 367.86083984375 -1850 -0.6997036 0.7144333 0 250 250 250
757.507385253906 367.86083984375 -1900 -0.6997036 0.7144333 0 250 250 250
765.913757324219 373.290344238281 -1850 -0.3634495 0.9316139 0 250 250 250
765.913757324219 373.290344238281 -1900 -0.3634495 0.9316139 0 250 250 250
775 375 -1850 9.865182E-16 1 0 250 250 250
775 375 -1900 9.865182E-16 1 0 250 250 250
784.497741699219 373.125579833984 -1850 0.3799104 0.9250233 0 250 250 250
784.497741699219 373.125579833984 -1900 0.3799104 0.9250233 0 250 250 250
792.86083984375 367.492584228516 -1850 0.7144333 0.6997036 0 250 250 250
792.86083984375 367.492584228516 -1900 0.7144333 0.6997036 0 250 250 250
798.290344238281 359.086242675781 -1850 0.9316139 0.3634495 0 250 250 250
798.290344238281 359.086242675781 -1900 0.9316139 0.3634495 0 250 250 250
800 350 -1850 1 1.973036E-15 0 250 250 250
800 350 -1900 1 1.973036E-15 0 250 250 250
798.125610351563 340.502227783203 -1850 0.9250233 -0.3799104 0 250 250 250
798.125610351563 340.502227783203 -1900 0.9250233 -0.3799104 0 250 250 250
792.492614746094 332.13916015625 -1850 0.6997036 -0.7144333 0 250 250 250
792.492614746094 332.13916015625 -1900 0.6997036 -0.7144333 0 250 250 250
784.086242675781 326.709655761719 -1850 0.3634495 -0.9316139 0 250 250 250
784.086242675781 326.709655761719 -1900 0.3634495 -0.9316139 0 250 250 250
775 325 -1850 -9.865182E-16 -1 0 250 250 250
775 325 -1900 -9.865182E-16 -1 0 250 250 250
765.502258300781 326.874420166016 -1850 -0.3799104 -0.9250233 0 250 250 250
765.502258300781 326.874420166016 -1900 -0.3799104 -0.9250233 0 250 250 250
757.13916015625 332.507415771484 -1850 -0.7144333 -0.6997036 0 250 250 250
757.13916015625 332.507415771484 -1900 -0.7144333 -0.6997036 0 250 250 250
751.709655761719 340.913757324219 -1850 -0.9316139 -0.3634495 0 250 250 250
751.709655761719 340.913757324219 -1900 -0.9316139 -0.3634495 0 250 250 250
750 350 -1850 -1 0 0 250 250 250
750 350 -1900 -1 0 0 250 250 250
750 350 -1875 -1 1.973036E-15 0 250 250 250
750 350 -1875 -1 0 0 250 250 250
750 350 -1900 0 0 -1 250 250 250
751.874389648438 359.497772216797 -1900 0 0 -1 250 250 250
757.507385253906 367.86083984375 -1900 0 0 -1 250 250 250
765.913757324219 373.290344238281 -1900 0 0 -1 250 250 250
775 375 -1900 0 0 -1 250 250 250
784.497741699219 373.125579833984 -1900 0 0 -1 250 250 250
792.86083984375 367.492584228516 -1900 0 0 -1 250 250 250
798.290344238281 359.086242675781 -1900 0 0 -1 250 250 250
800 350 -1900 0 0 -1 250 250 250
798.125610351563 340.502227783203 -1900 0 0 -1 250 250 250
792.492614746094 332.13916015625 -1900 0 0 -1 250 250 250
784.086242675781 326.709655761719 -1900 0 0 -1 250 250 250
775 325 -1900 0 0 -1 250 250 250
765.502258300781 326.874420166016 -1900 0 0 -1 250 250 250
757.13916015625 332.507415771484 -1900 0 0 -1 250 250 250
751.709655761719 340.913757324219 -1900 0 0 -1 250 250 250
50 350 -1850 1 -2.466296E-16 0 250 250 250
50 350 -1900 1 2.466296E-16 0 250 250 250
48.1255836486816 340.502227783203 -1850 0.9250233 -0.3799104 0 250 250 250
48.1255836486816 340.502227783203 -1900 0.9250233 -0.3799104 0 250 250 250
42.4925880432129 332.13916015625 -1850 0.6997036 -0.7144333 0 250 250 250
42.4925880432129 332.13916015625 -1900 0.6997036 -0.7144333 0 250 250 250
34.086238861084 326.709655761719 -1850 0.3634495 -0.9316139 0 250 250 250
34.086238861084 326.709655761719 -1900 0.3634495 -0.9316139 0 250 250 250
25 325 -1850 9.865182E-16 -1 0 250 250 250
25 325 -1900 9.865182E-16 -1 0 250 250 250
15.5022392272949 326.874420166016 -1850 -0.3799104 -0.9250233 0 250 250 250
15.5022392272949 326.874420166016 -1900 -0.3799104 -0.9250233 0 250 250 250
7.13916826248169 332.507415771484 -1850 -0.7144333 -0.6997036 0 250 250 250
7.13916826248169 332.507415771484 -1900 -0.7144333 -0.6997036 0 250 250 250
1.70965242385864 340.913757324219 -1850 -0.9316139 -0.3634495 0 250 250 250
1.70965242385864 340.913757324219 -1900 -0.9316139 -0.3634495 0 250 250 250
0 350 -1850 -1 0 0 250 250 250
0 350 -1900 -1 0 0 250 250 250
1.87441790103912 359.497772216797 -1850 -0.9250233 0.3799104 0 250 250 250
1.87441790103912 359.497772216797 -1900 -0.9250233 0.3799104 0 250 250 250
7.50741052627563 367.86083984375 -1850 -0.6997036 0.7144333 0 250 250 250
7.50741052627563 367.86083984375 -1900 -0.6997036 0.7144333 0 250 250 250
15.9137630462646 373.290344238281 -1850 -0.3634495 0.9316139 0 250 250 250
15.9137630462646 373.290344238281 -1900 -0.3634495 0.9316139 0 250 250 250
25 375 -1850 3.946073E-15 1 0 250 250 250
25 375 -1900 3.946073E-15 1 0 250 250 250
34.4977607727051 373.125579833984 -1850 0.3799104 0.9250233 0 250 250 250
34.4977607727051 373.125579833984 -1900 0.3799104 0.9250233 0 250 250 250
42.8608322143555 367.492584228516 -1850 0.7144333 0.6997036 0 250 250 250
42.8608322143555 367.492584228516 -1900 0.7144333 0.6997036 0 250 250 250
48.2903480529785 359.086242675781 -1850 0.9316139 0.3634495 0 250 250 250
48.2903480529785 359.086242675781 -1900 0.9316139 0.3634495 0 250 250 250
50 350 -1850 1 2.466296E-16 0 250 250 250
50 350 -1900 1 2.466296E-16 0 250 250 250
50 350 -1875 1 -2.466296E-16 0 250 250 250
50 350 -1875 1 -2.466296E-16 0 250 250 250
50 350 -1900 0 0 -1 250 250 250
48.1255836486816 340.502227783203 -1900 0 0 -1 250 250 250
42.4925880432129 332.13916015625 -1900 0 0 -1 250 250 250
34.086238861084 326.709655761719 -1900 0 0 -1 250 250 250
25 325 -1900 0 0 -1 250 250 250
15.5022392272949 326.874420166016 -1900 0 0 -1 250 250 250
7.13916826248169 332.507415771484 -1900 0 0 -1 250 250 250
1.70965242385864 340.913757324219 -1900 0 0 -1 250 250 250
0 350 -1900 0 0 -1 250 250 250
1.87441790103912 359.497772216797 -1900 0 0 -1 250 250 250
7.50741052627563 367.86083984375 -1900 0 0 -1 250 250 250
15.9137630462646 373.290344238281 -1900 0 0 -1 250 250 250
25 375 -1900 0 0 -1 250 250 250
34.4977607727051 373.125579833984 -1900 0 0 -1 250 250 250
42.8608322143555 367.492584228516 -1900 0 0 -1 250 250 250
48.2903480529785 359.086242675781 -1900 0 0 -1 250 250 250
750 50 -1850 -1 0 0 250 250 250
750 50 -1900 -1 0 0 250 250 250
751.874389648438 59.4977607727051 -1850 -0.9250233 0.3799104 0 250 250 250
751.874389648438 59.4977607727051 -1900 -0.9250233 0.3799104 0 250 250 250
757.507385253906 67.8608322143555 -1850 -0.6997036 0.7144333 0 250 250 250
757.507385253906 67.8608322143555 -1900 -0.6997036 0.7144333 0 250 250 250
765.913757324219 73.2903442382813 -1850 -0.3634495 0.9316139 0 250 250 250
765.913757324219 73.2903442382813 -1900 -0.3634495 0.9316139 0 250 250 250
775 75 -1850 -2.466296E-16 1 0 250 250 250
775 75 -1900 -2.466296E-16 1 0 250 250 250
784.497741699219 73.1255798339844 -1850 0.3799104 0.9250233 0 250 250 250
784.497741699219 73.1255798339844 -1900 0.3799104 0.9250233 0 250 250 250
792.86083984375 67.4925918579102 -1850 0.7144333 0.6997036 0 250 250 250
792.86083984375 67.4925918579102 -1900 0.7144333 0.6997036 0 250 250 250
798.290344238281 59.086238861084 -1850 0.9316139 0.3634495 0 250 250 250
798.290344238281 59.086238861084 -1900 0.9316139 0.3634495 0 250 250 250
800 50 -1850 1 1.973036E-15 0 250 250 250
800 50 -1900 1 1.973036E-15 0 250 250 250
798.125610351563 40.5022392272949 -1850 0.9250233 -0.3799104 0 250 250 250
798.125610351563 40.5022392272949 -1900 0.9250233 -0.3799104 0 250 250 250
792.492614746094 32.1391677856445 -1850 0.6997036 -0.7144333 0 250 250 250
792.492614746094 32.1391677856445 -1900 0.6997036 -0.7144333 0 250 250 250
784.086242675781 26.7096519470215 -1850 0.3634495 -0.9316139 0 250 250 250
784.086242675781 26.7096519470215 -1900 0.3634495 -0.9316139 0 250 250 250
775 25 -1850 1.233148E-16 -1 0 250 250 250
775 25 -1900 1.233148E-16 -1 0 250 250 250
765.502258300781 26.874418258667 -1850 -0.3799104 -0.9250233 0 250 250 250
765.502258300781 26.874418258667 -1900 -0.3799104 -0.9250233 0 250 250 250
757.13916015625 32.5074119567871 -1850 -0.7144333 -0.6997036 0 250 250 250
757.13916015625 32.5074119567871 -1900 -0.7144333 -0.6997036 0 250 250 250
751.709655761719 40.913761138916 -1850 -0.9316139 -0.3634495 0 250 250 250
751.709655761719 40.913761138916 -1900 -0.9316139 -0.3634495 0 250 250 250
750 50 -1850 -1 0 0 250 250 250
750 50 -1900 -1 0 0 250 250 250
750 50 -1875 -1 1.973036E-15 0 250 250 250
750 50 -1875 -1 0 0 250 250 250
750 50 -1900 0 0 -1 250 250 250
751.874389648438 59.4977607727051 -1900 0 0 -1 250 250 250
757.507385253906 67.8608322143555 -1900 0 0 -1 250 250 250
765.913757324219 73.2903442382813 -1900 0 0 -1 250 250 250
775 75 -1900 0 0 -1 250 250 250
784.497741699219 73.1255798339844 -1900 0 0 -1 250 250 250
792.86083984375 67.4925918579102 -1900 0 0 -1 250 250 250
798.290344238281 59.086238861084 -1900 0 0 -1 250 250 250
800 50 -1900 0 0 -1 250 250 250
798.125610351563 40.5022392272949 -1900 0 0 -1 250 250 250
792.492614746094 32.1391677856445 -1900 0 0 -1 250 250 250
784.086242675781 26.7096519470215 -1900 0 0 -1 250 250 250
775 25 -1900 0 0 -1 250 250 250
765.502258300781 26.874418258667 -1900 0 0 -1 250 250 250
757.13916015625 32.5074119567871 -1900 0 0 -1 250 250 250
751.709655761719 40.913761138916 -1900 0 0 -1 250 250 250
50 50 -1850 1 -2.466296E-16 0 250 250 250
50 50 -1900 1 4.932591E-16 0 250 250 250
48.1255836486816 40.5022392272949 -1850 0.9250233 -0.3799104 0 250 250 250
48.1255836486816 40.5022392272949 -1900 0.9250233 -0.3799104 0 250 250 250
42.4925880432129 32.1391677856445 -1850 0.6997036 -0.7144333 0 250 250 250
42.4925880432129 32.1391677856445 -1900 0.6997036 -0.7144333 0 250 250 250
34.086238861084 26.7096519470215 -1850 0.3634495 -0.9316139 0 250 250 250
34.086238861084 26.7096519470215 -1900 0.3634495 -0.9316139 0 250 250 250
25 25 -1850 -6.165739E-17 -1 0 250 250 250
25 25 -1900 -6.165739E-17 -1 0 250 250 250
15.5022392272949 26.874418258667 -1850 -0.3799104 -0.9250233 0 250 250 250
15.5022392272949 26.874418258667 -1900 -0.3799104 -0.9250233 0 250 250 250
7.13916826248169 32.5074119567871 -1850 -0.7144333 -0.6997036 0 250 250 250
7.13916826248169 32.5074119567871 -1900 -0.7144333 -0.6997036 0 250 250 250
1.70965242385864 40.913761138916 -1850 -0.9316139 -0.3634495 0 250 250 250
1.70965242385864 40.913761138916 -1900 -0.9316139 -0.3634495 0 250 250 250
0 50 -1850 -1 4.019437E-16 0 250 250 250
0 50 -1900 -1 4.019437E-16 0 250 250 250
1.87441790103912 59.4977607727051 -1850 -0.9250233 0.3799104 0 250 250 250
1.87441790103912 59.4977607727051 -1900 -0.9250233 0.3799104 0 250 250 250
7.50741052627563 67.8608322143555 -1850 -0.6997036 0.7144333 0 250 250 250
7.50741052627563 67.8608322143555 -1900 -0.6997036 0.7144333 0 250 250 250
15.9137630462646 73.2903442382813 -1850 -0.3634495 0.9316139 0 250 250 250
15.9137630462646 73.2903442382813 -1900 -0.3634495 0.9316139 0 250 250 250
25 75 -1850 4.932591E-16 1 0 250 250 250
25 75 -1900 4.932591E-16 1 0 250 250 250
34.4977607727051 73.1255798339844 -1850 0.3799104 0.9250233 0 250 250 250
34.4977607727051 73.1255798339844 -1900 0.3799104 0.9250233 0 250 250 250
42.8608322143555 67.4925918579102 -1850 0.7144333 0.6997036 0 250 250 250
42.8608322143555 67.4925918579102 -1900 0.7144333 0.6997036 0 250 250 250
48.2903480529785 59.086238861084 -1850 0.9316139 0.3634495 0 250 250 250
48.2903480529785 59.086238861084 -1900 0.9316139 0.3634495 0 250 250 250
50 50 -1850 1 4.932591E-16 0 250 250 250
50 50 -1900 1 4.932591E-16 0 250 250 250
50 50 -1875 1 -2.466296E-16 0 250 250 250
50 50 -1875 1 -2.466296E-16 0 250 250 250
50 50 -1900 0 0 -1 250 250 250
48.1255836486816 40.5022392272949 -1900 0 0 -1 250 250 250
42.4925880432129 32.1391677856445 -1900 0 0 -1 250 250 250
34.086238861084 26.7096519470215 -1900 0 0 -1 250 250 250
25 25 -1900 0 0 -1 250 250 250
15.5022392272949 26.874418258667 -1900 0 0 -1 250 250 250
7.13916826248169 32.5074119567871 -1900 0 0 -1 250 250 250
1.70965242385864 40.913761138916 -1900 0 0 -1 250 250 250
0 50 -1900 0 0 -1 250 250 250
1.87441790103912 59.4977607727051 -1900 0 0 -1 250 250 250
7.50741052627563 67.8608322143555 -1900 0 0 -1 250 250 250
15.9137630462646 73.2903442382813 -1900 0 0 -1 250 250 250
25 75 -1900 0 0 -1 250 250 250
34.4977607727051 73.1255798339844 -1900 0 0 -1 250 250 250
42.8608322143555 67.4925918579102 -1900 0 0 -1 250 250 250
48.2903480529785 59.086238861084 -1900 0 0 -1 250 250 250
800 400 0 1 0 0 250 250 250
800 375 0 1 0 0 250 250 250
800 375 -1825 1 0 0 250 250 250
800 400 -1825 1 0 0 250 250 250
0 400 -1850 0 1 0 250 250 250
0 400 0 0 1 0 250 250 250
800 400 -1850 0 1 0 250 250 250
800 400 0 0 1 0 250 250 250
800 400 -1825 0 1 0 250 250 250
25 400 -1850 0 1 0 250 250 250
775 400 0 0 1 0 250 250 250
25 400 0 0 1 0 250 250 250
800 0 0 0 -1 0 250 250 250
775 0 0 0 -1 0 250 250 250
800 0 -1825 0 -1 0 250 250 250
775 0 -1825 0 -1 0 250 250 250
775 0 -25 0 -1 0 250 250 250
775 0 -361 0 -1 0 250 250 250
775 0 -384 0 -1 0 250 250 250
775 0 -717 0 -1 0 250 250 250
775 0 -742 0 -1 0 250 250 250
775 0 -1077 0 -1 0 250 250 250
775 0 -1100 0 -1 0 250 250 250
775 0 -1433 0 -1 0 250 250 250
775 0 -1456 0 -1 0 250 250 250
800 0 -25 0 -1 0 250 250 250
800 0 -361 0 -1 0 250 250 250
800 0 -384 0 -1 0 250 250 250
800 0 -717 0 -1 0 250 250 250
800 0 -742 0 -1 0 250 250 250
800 0 -1077 0 -1 0 250 250 250
800 0 -1100 0 -1 0 250 250 250
800 0 -1433 0 -1 0 250 250 250
800 0 -1456 0 -1 0 250 250 250
800.25 0 -1825 1 0 0 250 250 250
800.25 400 -1825 1 0 0 250 250 250
800.25 0 -1850 1 0 0 250 250 250
800.25 400 -1850 1 0 0 250 250 250
0 0 0 0 0 1 250 250 250
0 400 0 0 0 1 250 250 250
800 0 0 0 0 1 250 250 250
800 400 0 0 0 1 250 250 250
800 375 0 0 0 1 250 250 250
775 0 0 0 0 1 250 250 250
25 0 0 0 0 1 250 250 250
775 400 0 0 0 1 250 250 250
25 400 0 0 0 1 250 250 250
0 375 0 0 0 1 250 250 250
25 0 -1850 0 -1 0 250 250 250
25 0 0 0 -1 0 250 250 250
0 0 -1850 0 -1 0 250 250 250
0 0 0 0 -1 0 250 250 250
25 0 -25 0 -1 0 250 250 250
25 0 -1825 0 -1 0 250 250 250
25 0 -1456 0 -1 0 250 250 250
25 0 -1433 0 -1 0 250 250 250
25 0 -1100 0 -1 0 250 250 250
25 0 -1077 0 -1 0 250 250 250
25 0 -742 0 -1 0 250 250 250
25 0 -717 0 -1 0 250 250 250
25 0 -384 0 -1 0 250 250 250
25 0 -361 0 -1 0 250 250 250
0 0 -1825 0 -1 0 250 250 250
0 0 -1456 0 -1 0 250 250 250
0 0 -1433 0 -1 0 250 250 250
0 0 -1100 0 -1 0 250 250 250
0 0 -1077 0 -1 0 250 250 250
0 0 -742 0 -1 0 250 250 250
0 0 -717 0 -1 0 250 250 250
0 0 -384 0 -1 0 250 250 250
0 0 -361 0 -1 0 250 250 250
0 0 -25 0 -1 0 250 250 250
800 0 0 1 0 0 250 250 250
800 375 0 1 0 0 250 250 250
800 0 -1825 1 0 0 250 250 250
800 375 -1825 1 0 0 250 250 250
800 0 -25 1 0 0 250 250 250
800 0 -361 1 0 0 250 250 250
800 0 -384 1 0 0 250 250 250
800 0 -717 1 0 0 250 250 250
800 0 -742 1 0 0 250 250 250
800 0 -1077 1 0 0 250 250 250
800 0 -1100 1 0 0 250 250 250
800 0 -1433 1 0 0 250 250 250
800 0 -1456 1 0 0 250 250 250
800 0 -1825 0 0 1 250 250 250
800 400 -1825 0 0 1 250 250 250
800.25 0 -1825 0 0 1 250 250 250
800.25 400 -1825 0 0 1 250 250 250
800 375 -1825 0 0 1 250 250 250
800.25 0 -1850 0 -1 0 250 250 250
800.25 0 -1825 0 -1 0 250 250 250
25 0 -1850 0 -1 0 250 250 250
25 0 -1825 0 -1 0 250 250 250
775 0 -1825 0 -1 0 250 250 250
800 0 -1825 0 -1 0 250 250 250
800 0 -1850 0 -1 0 250 250 250
775 0 -1850 0 -1 0 250 250 250
800.25 400 -1850 0 1 0 250 250 250
800.25 400 -1825 0 1 0 250 250 250
800 400 -1850 0 1 0 250 250 250
800 400 -1825 0 1 0 250 250 250
775 0 -1456 0 -1 0 250 250 250
25 0 -1456 0 -1 0 250 250 250
25 0 -1433 0 -1 0 250 250 250
775 0 -1433 0 -1 0 250 250 250
775 0 -1100 0 -1 0 250 250 250
25 0 -1100 0 -1 0 250 250 250
25 0 -1077 0 -1 0 250 250 250
775 0 -1077 0 -1 0 250 250 250
775 0 -742 0 -1 0 250 250 250
775 0 -717 0 -1 0 250 250 250
25 0 -742 0 -1 0 250 250 250
25 0 -717 0 -1 0 250 250 250
775 0 -384 0 -1 0 250 250 250
25 0 -384 0 -1 0 250 250 250
25 0 -361 0 -1 0 250 250 250
775 0 -361 0 -1 0 250 250 250
775 0 -25 0 -1 0 250 250 250
775 0 0 0 -1 0 250 250 250
25 0 -25 0 -1 0 250 250 250
25 0 0 0 -1 0 250 250 250
25 375 -361 0 -1 0 250 250 250
25 375 -25 0 -1 0 250 250 250
775 375 -361 0 -1 0 250 250 250
775 375 -25 0 -1 0 250 250 250
25 375 -742 0 -1 0 250 250 250
775 375 -1077 0 -1 0 250 250 250
25 375 -1077 0 -1 0 250 250 250
775 375 -742 0 -1 0 250 250 250
775 375 -1100 0 -1 0 250 250 250
25 375 -1100 0 -1 0 250 250 250
775 375 -1433 0 -1 0 250 250 250
25 375 -1433 0 -1 0 250 250 250
25 375 -1456 -2.775558E-17 -1 0 250 250 250
25 375 -1825 0 -1 0 250 250 250
775 375 -1825 0 -1 0 250 250 250
775 375 -1456 0 -1 0 250 250 250
25 375 -717 0 -1 0 250 250 250
775 375 -717 0 -1 0 250 250 250
775 375 -384 0 -1 0 250 250 250
25 375 -384 0 -1 0 250 250 250
775 0 -717 -1 0 0 250 250 250
775 0 -384 -1 0 0 250 250 250
775 375 -384 -1 0 0 250 250 250
775 375 -717 -1 0 0 250 250 250
25 0 -1456 1 0 0 250 250 250
25 0 -1825 1 0 0 250 250 250
25 375 -1825 1 0 0 250 250 250
25 375 -1456 1 0 0 250 250 250
25 0 -1100 1 0 0 250 250 250
25 375 -1433 1 0 0 250 250 250
25 0 -1433 1 0 0 250 250 250
25 375 -1100 1 0 0 250 250 250
25 0 -742 1 0 0 250 250 250
25 375 -742 1 0 0 250 250 250
25 375 -1077 1 0 0 250 250 250
25 0 -1077 1 0 0 250 250 250
25 0 -384 1 0 0 250 250 250
25 375 -384 1 0 0 250 250 250
25 0 -717 1 0 0 250 250 250
25 375 -717 1 0 0 250 250 250
25 0 -361 1 0 0 250 250 250
25 375 -361 1 0 0 250 250 250
25 0 -25 1 0 0 250 250 250
25 375 -25 1 0 0 250 250 250
0 0 -1850 -1 0 0 250 250 250
0 400 -1850 -1 0 0 250 250 250
0 0 0 -1 0 0 250 250 250
0 400 0 -1 0 0 250 250 250
0 0 -1825 -1 0 0 250 250 250
0 0 -1456 -1 0 0 250 250 250
0 0 -1433 -1 0 0 250 250 250
0 0 -1100 -1 0 0 250 250 250
0 0 -1077 -1 0 0 250 250 250
0 0 -742 -1 0 0 250 250 250
0 0 -717 -1 0 0 250 250 250
0 0 -384 -1 0 0 250 250 250
0 0 -361 -1 0 0 250 250 250
0 0 -25 -1 0 0 250 250 250
0 50 -1850 -1 0 0 250 250 250
0 375 0 -1 0 0 250 250 250
0 350 -1850 -1 0 0 250 250 250
0 375 -1850 -1 0 0 250 250 250
775 0 -1433 -1 0 0 250 250 250
775 375 -1433 -1 0 0 250 250 250
775 0 -1100 -1 0 0 250 250 250
775 375 -1100 -1 0 0 250 250 250
775 0 -361 -1 0 0 250 250 250
775 375 -361 -1 0 0 250 250 250
775 0 -25 -1 0 0 250 250 250
775 375 -25 -1 0 0 250 250 250
775 0 -1456 -1 0 0 250 250 250
775 375 -1456 -1 0 0 250 250 250
775 0 -1825 -1 0 0 250 250 250
775 375 -1825 -1 0 0 250 250 250
775 0 -1077 -1 0 0 250 250 250
775 375 -1077 -1 0 0 250 250 250
775 0 -742 -1 0 0 250 250 250
775 375 -742 -1 0 0 250 250 250
25 375 -1825 0 0 1 250 250 250
775 0 -1825 0 0 1 250 250 250
775 375 -1825 0 0 1 250 250 250
25 0 -1825 0 0 1 250 250 250
25 0 -1433 0 0 1 250 250 250
25 375 -1433 0 0 1 250 250 250
775 375 -1433 0 0 1 250 250 250
775 0 -1433 0 0 1 250 250 250
775 0 -1456 0 0 -1 250 250 250
775 375 -1456 0 0 -1 250 250 250
25 375 -1456 0 0 -1 250 250 250
25 0 -1456 0 0 -1 250 250 250
25 0 -1077 0 0 1 250 250 250
25 375 -1077 0 0 1 250 250 250
775 375 -1077 0 0 1 250 250 250
775 0 -1077 0 0 1 250 250 250
775 0 -1100 0 0 -1 250 250 250
775 375 -1100 0 0 -1 250 250 250
25 375 -1100 0 0 -1 250 250 250
25 0 -1100 0 0 -1 250 250 250
25 0 -717 0 0 1 250 250 250
25 375 -717 0 0 1 250 250 250
775 375 -717 0 0 1 250 250 250
775 0 -717 0 0 1 250 250 250
775 0 -742 0 0 -1 250 250 250
775 375 -742 0 0 -1 250 250 250
25 0 -742 0 0 -1 250 250 250
25 375 -742 0 0 -1 250 250 250
25 0 -361 0 0 1 250 250 250
25 375 -361 0 0 1 250 250 250
775 375 -361 0 0 1 250 250 250
775 0 -361 0 0 1 250 250 250
775 0 -384 0 0 -1 250 250 250
775 375 -384 0 0 -1 250 250 250
25 375 -384 0 0 -1 250 250 250
25 0 -384 0 0 -1 250 250 250
775 0 -25 0 0 -1 250 250 250
775 375 -25 0 0 -1 250 250 250
25 0 -25 0 0 -1 250 250 250
25 375 -25 0 0 -1 250 250 250
800.25 0 -1850 0 0 -1 250 250 250
800.25 400 -1850 0 0 -1 250 250 250
0 0 -1850 0 0 -1 250 250 250
0 400 -1850 0 0 -1 250 250 250
750 350 -1850 0 0 -1 250 250 250
751.709655761719 340.913757324219 -1850 2.220446E-16 0 -1 250 250 250
757.13916015625 332.507415771484 -1850 2.220446E-16 0 -1 250 250 250
765.502258300781 326.874420166016 -1850 2.220446E-16 0 -1 250 250 250
775 325 -1850 0 0 -1 250 250 250
784.086242675781 326.709655761719 -1850 0 0 -1 250 250 250
792.492614746094 332.13916015625 -1850 0 0 -1 250 250 250
798.125610351563 340.502227783203 -1850 0 0 -1 250 250 250
800 350 -1850 0 0 -1 250 250 250
798.290344238281 359.086242675781 -1850 0 0 -1 250 250 250
792.86083984375 367.492584228516 -1850 0 0 -1 250 250 250
784.497741699219 373.125579833984 -1850 0 0 -1 250 250 250
775 375 -1850 0 0 -1 250 250 250
765.913757324219 373.290344238281 -1850 0 0 -1 250 250 250
757.507385253906 367.86083984375 -1850 0 0 -1 250 250 250
751.874389648438 359.497772216797 -1850 0 0 -1 250 250 250
0 350 -1850 0 0 -1 250 250 250
1.70965242385864 340.913757324219 -1850 2.220446E-16 0 -1 250 250 250
7.13916826248169 332.507415771484 -1850 2.220446E-16 0 -1 250 250 250
15.5022392272949 326.874420166016 -1850 2.220446E-16 0 -1 250 250 250
25 325 -1850 0 0 -1 250 250 250
34.086238861084 326.709655761719 -1850 0 0 -1 250 250 250
42.4925880432129 332.13916015625 -1850 2.220446E-16 0 -1 250 250 250
48.1255836486816 340.502227783203 -1850 0 0 -1 250 250 250
50 350 -1850 0 0 -1 250 250 250
750 50 -1850 1.110223E-16 0 -1 250 250 250
751.709655761719 40.913761138916 -1850 -2.775558E-17 0 -1 250 250 250
757.13916015625 32.5074119567871 -1850 1.110223E-16 0 -1 250 250 250
765.502258300781 26.874418258667 -1850 5.551115E-17 0 -1 250 250 250
775 25 -1850 -1.665335E-16 0 -1 250 250 250
784.086242675781 26.7096519470215 -1850 1.665335E-16 0 -1 250 250 250
792.492614746094 32.1391677856445 -1850 -2.220446E-16 0 -1 250 250 250
798.125610351563 40.5022392272949 -1850 -1.94289E-16 0 -1 250 250 250
800 50 -1850 1.110223E-16 0 -1 250 250 250
798.290344238281 59.086238861084 -1850 5.551115E-17 0 -1 250 250 250
792.86083984375 67.4925918579102 -1850 5.551115E-17 0 -1 250 250 250
784.497741699219 73.1255798339844 -1850 1.110223E-16 0 -1 250 250 250
775 75 -1850 1.665335E-16 0 -1 250 250 250
765.913757324219 73.2903442382813 -1850 5.551115E-17 0 -1 250 250 250
757.507385253906 67.8608322143555 -1850 0 0 -1 250 250 250
751.874389648438 59.4977607727051 -1850 -5.551115E-17 0 -1 250 250 250
0 50 -1850 1.110223E-16 0 -1 250 250 250
1.70965242385864 40.913761138916 -1850 -2.775558E-17 0 -1 250 250 250
7.13916826248169 32.5074119567871 -1850 5.551115E-17 0 -1 250 250 250
15.5022392272949 26.874418258667 -1850 8.326673E-17 0 -1 250 250 250
25 25 -1850 -1.665335E-16 0 -1 250 250 250
34.086238861084 26.7096519470215 -1850 1.665335E-16 0 -1 250 250 250
42.4925880432129 32.1391677856445 -1850 -2.775558E-17 0 -1 250 250 250
48.1255836486816 40.5022392272949 -1850 5.551115E-17 0 -1 250 250 250
50 50 -1850 1.110223E-16 0 -1 250 250 250
25 0 -1850 0 0 -1 250 250 250
800 0 -1850 0 0 -1 250 250 250
775 0 -1850 0 0 -1 250 250 250
800 400 -1850 0 0 -1 250 250 250
25 400 -1850 0 0 -1 250 250 250
48.2903480529785 59.086238861084 -1850 0 0 -1 250 250 250
42.8608322143555 67.4925918579102 -1850 -5.551115E-17 0 -1 250 250 250
34.4977607727051 73.1255798339844 -1850 2.220446E-16 0 -1 250 250 250
25 75 -1850 1.665335E-16 0 -1 250 250 250
15.9137630462646 73.2903442382813 -1850 1.110223E-16 0 -1 250 250 250
7.50741052627563 67.8608322143555 -1850 -1.665335E-16 0 -1 250 250 250
1.87441790103912 59.4977607727051 -1850 -5.551115E-17 0 -1 250 250 250
48.2903480529785 359.086242675781 -1850 0 0 -1 250 250 250
42.8608322143555 367.492584228516 -1850 0 0 -1 250 250 250
34.4977607727051 373.125579833984 -1850 0 0 -1 250 250 250
25 375 -1850 0 0 -1 250 250 250
15.9137630462646 373.290344238281 -1850 0 0 -1 250 250 250
7.50741052627563 367.86083984375 -1850 0 0 -1 250 250 250
1.87441790103912 359.497772216797 -1850 0 0 -1 250 250 250
0 375 -1850 0 0 -1 250 250 250
3 34 0 2
4 6 7 5 4
4 4 5 3 2
4 10 11 9 8
4 14 15 13 12
4 15 14 16 17
4 12 13 11 10
4 8 9 7 6
3 3 1 34
3 2 3 34
4 20 21 19 18
4 24 25 23 22
4 22 23 21 20
4 28 29 27 26
3 35 30 32
4 30 31 29 28
4 26 27 25 24
3 31 30 35
4 18 19 17 16
3 35 33 31
3 39 37 38
3 43 49 37
3 37 39 43
3 50 51 36
3 36 49 50
3 49 36 37
3 43 39 40
3 43 41 42
3 43 46 49
3 44 46 43
3 46 47 48
3 46 48 49
3 46 44 45
3 41 43 40
3 86 52 54
4 58 59 57 56
4 56 57 55 54
4 62 63 61 60
4 66 67 65 64
4 67 66 68 69
4 64 65 63 62
4 60 61 59 58
3 55 53 86
3 54 55 86
4 72 73 71 70
4 76 77 75 74
4 74 75 73 72
4 80 81 79 78
3 87 82 84
4 82 83 81 80
4 78 79 77 76
3 83 82 87
4 70 71 69 68
3 87 85 83
3 98 96 97
3 99 96 98
3 94 99 101
3 94 95 96
3 99 94 96
3 93 94 101
3 101 99 100
3 103 101 102
3 101 103 88
3 90 101 88
3 90 91 92
3 90 92 93
3 90 88 89
3 101 90 93
3 138 104 106
4 110 111 109 108
4 108 109 107 106
4 114 115 113 112
4 118 119 117 116
4 119 118 120 121
4 116 117 115 114
4 112 113 111 110
3 107 105 138
3 106 107 138
4 124 125 123 122
4 128 129 127 126
4 126 127 125 124
4 132 133 131 130
3 139 134 136
4 134 135 133 132
4 130 131 129 128
3 135 134 139
4 122 123 121 120
3 139 137 135
3 150 147 149
3 142 145 150
3 142 150 151
3 147 148 149
3 147 145 146
3 147 150 145
3 142 151 152
3 154 142 153
3 154 155 140
3 140 142 154
3 142 143 144
3 142 144 145
3 142 140 141
3 153 142 152
3 190 156 158
4 162 163 161 160
4 160 161 159 158
4 166 167 165 164
4 170 171 169 168
4 171 170 172 173
4 168 169 167 166
4 164 165 163 162
3 159 157 190
3 158 159 190
4 176 177 175 174
4 180 181 179 178
4 178 179 177 176
4 184 185 183 182
3 191 186 188
4 186 187 185 184
4 182 183 181 180
3 187 186 191
4 174 175 173 172
3 191 189 187
3 193 207 192
3 193 194 195
3 206 193 202
3 206 207 193
3 205 202 204
3 202 205 206
3 197 193 195
3 202 193 197
3 202 197 198
3 198 199 200
3 203 204 202
3 202 200 201
3 202 198 200
3 197 195 196
4 209 210 211 208
4 217 212 213 219
3 219 218 217
3 217 218 216
3 216 218 215
3 214 217 216
4 241 232 223 222
4 239 230 231 240
4 238 229 230 239
4 240 231 232 241
4 236 227 228 237
4 235 226 227 236
4 233 224 225 234
4 220 221 224 233
4 234 225 226 235
4 237 228 229 238
4 243 242 244 245
3 255 246 252
3 247 255 254
4 255 250 253 254
4 252 251 250 255
3 250 251 248
3 249 253 250
4 261 270 258 256
4 262 271 270 261
4 264 273 272 263
4 265 274 273 264
4 263 272 271 262
4 267 276 275 266
4 268 277 276 267
4 260 279 278 269
4 257 259 279 260
4 269 278 277 268
4 266 275 274 265
3 281 280 284
3 281 284 285
3 287 281 286
3 285 286 281
3 288 281 287
4 283 281 288 289
3 283 289 290
3 283 291 292
3 292 282 283
3 290 291 283
4 297 293 295 296
3 294 297 296
4 304 298 299 303
4 303 302 305 304
4 300 305 302 301
4 307 306 308 309
4 313 312 311 310
4 317 316 315 314
4 319 321 320 318
4 325 324 323 322
4 327 329 328 326
4 331 330 332 333
4 334 336 335 337
4 339 341 340 338
4 342 343 344 345
4 349 346 347 348
4 353 350 351 352
4 354 355 356 357
4 361 358 360 359
4 363 362 365 364
4 367 366 368 369
4 373 372 370 371
3 388 374 378
3 388 379 380
3 388 378 379
3 381 390 388
4 375 391 389 377
3 391 390 389
3 390 381 382
3 381 388 380
3 390 383 389
3 389 384 385
3 389 383 384
3 389 386 387
3 387 376 389
3 386 389 385
3 383 390 382
4 393 392 394 395
4 396 398 399 397
4 403 402 400 401
4 405 404 406 407
4 408 411 409 410
4 413 412 415 414
4 417 416 419 418
4 421 420 423 422
4 425 424 427 426
4 429 428 431 430
4 433 432 434 435
4 437 436 439 438
4 441 440 443 442
4 445 444 446 447
3 482 448 503
3 448 482 483
3 482 503 481
3 484 448 483
3 460 485 486
3 458 487 488
3 484 485 448
3 459 486 487
4 485 460 449 448
3 480 481 504
3 503 504 481
3 504 479 480
3 478 479 500
3 455 490 491
3 501 477 478
3 491 492 508
3 474 454 491
3 502 479 504
3 459 460 486
3 457 458 488
3 459 487 458
3 463 505 449
3 449 462 463
3 449 461 462
3 461 449 460
3 464 505 463
3 457 489 456
3 456 489 490
3 455 456 490
3 454 455 491
3 454 475 453
3 505 464 465
3 514 467 452
3 515 466 467
3 505 465 466
3 452 453 476
3 489 457 488
3 506 505 466
3 477 507 492
3 502 498 499
3 498 502 497
3 450 497 502
3 499 500 479
3 508 492 507
3 474 508 509
3 500 501 478
3 508 474 491
3 502 499 479
3 450 495 496
3 493 494 450
3 495 450 494
3 450 496 497
3 472 510 511
3 469 513 493
3 470 512 513
3 471 511 512
3 473 509 510
3 474 475 454
3 510 472 473
3 473 474 509
3 452 476 514
3 506 515 516
3 516 517 506
3 515 506 466
3 514 515 467
3 475 476 453
3 512 470 471
3 493 468 469
3 521 520 468
3 469 470 513
3 521 517 518
4 517 521 451 506
3 520 521 519
3 519 521 518
3 471 472 511
3 501 507 477
0 0 0 255 250 250 250 255 0 0 0 255 255 255 255 255 0 0
